

@startuml

title State diagram for booking

state in_queue
state pending
state accepted
state reserved
state confirmed
state checked_in
state declined

state booking_action <<fork>>
[*] --> booking_action : User makes a booking
booking_action --> pending : Härbärge has free places
booking_action --> in_queue : Härbärge is full

state approval_state <<fork>>
pending --> approval_state
in_queue --> approval_state

approval_state --> accepted : CaseWorker accepts
approval_state --> declined : CaseWorker declines

accepted --> reserved : Host accepts
accepted --> declined : Host declines

reserved --> confirmed : User confims
reserved --> declined : User declines
confirmed --> checked_in : Host checks-in user on arrival

checked_in --> [*]
declined --> [*]

pending: User has made a successful booking
in_queue: User has made a booking, but there is not places left
in_queue: User is put into a queue
accepted: User booking has been accepted by the CaseWorker
reserved: Place has been reserved for the user
declined: Users booking has been declined by the CaseWorker, host or user
confirmed: User has confirmed the booking

@enduml
